<svg data-w-id="84dc805f-609b-369d-d885-0e621cc8fb2f" xmlns="http://www.w3.org/2000/svg" width="100%" viewBox="0 0 422 103" fill="none" class="nav-brand" style="transform: translate3d(0px, 0px, 0px) scale3d(1, 1, 1) rotateX(0deg) rotateY(0deg) rotateZ(0deg) skew(0deg, 0deg); transform-style: preserve-3d;"><mask id="path-1-outside-1_645_7441" maskUnits="userSpaceOnUse" x="0.853516" y="0.344009" width="421" height="102" fill="black"><rect fill="white" x="0.853516" y="0.344009" width="421" height="102"></rect><path d="M3.85352 51.368C3.85352 37.19 3.85352 23.0158 3.85352 8.83769C3.85352 6.2574 4.82799 5.28254 7.4421 5.2748C13.0454 5.25933 18.6526 5.32896 24.2559 5.22838C26.2938 5.19356 27.3379 6.24193 28.0301 7.88991C28.4516 8.89572 28.7185 9.96343 29.0665 11.0002C29.7509 13.0234 30.6519 13.2903 32.2413 11.8397C35.826 8.57077 39.8903 6.11814 44.5887 4.92664C56.0931 2.01365 67.1334 2.87246 77.0484 9.93635C84.6162 15.329 88.2473 23.1705 89.7245 32.1377C90.2157 35.128 90.4013 38.1493 90.4013 41.1823C90.4013 58.6447 90.4051 76.1071 90.4013 93.5695C90.4013 96.351 89.3881 97.3452 86.5691 97.3452C80.4476 97.3529 74.3261 97.3529 68.2084 97.3452C65.691 97.3452 64.5812 96.2581 64.5812 93.7707C64.5812 76.6294 64.5734 59.4919 64.585 42.3505C64.585 40.0836 64.3917 37.8437 63.8233 35.6542C62.3886 30.1261 58.9779 26.5786 53.2199 25.832C45.8455 24.8804 39.0086 25.9829 34.1052 32.3156C31.1237 36.1648 29.925 40.7683 29.8321 45.5227C29.6311 55.8284 29.6813 66.138 29.6465 76.4475C29.6272 82.2464 29.6465 88.0453 29.6388 93.8442C29.6349 96.2349 28.5096 97.3374 26.1121 97.3413C19.9287 97.3413 13.7415 97.3452 7.55813 97.3413C4.83961 97.3413 3.85352 96.3626 3.85352 93.6894C3.85352 79.5771 3.85352 65.4648 3.85352 51.3525V51.368Z"></path><path d="M156.368 60.5059C147.478 60.5059 138.583 60.5059 129.693 60.5059C126.793 60.5059 125.76 61.8328 126.46 64.6568C128.135 71.4344 134.341 76.4055 141.867 76.9316C145.625 77.1946 149.334 77.0205 152.857 75.4422C154.597 74.6646 156.066 73.5892 157.141 71.9721C158.181 70.4054 159.461 69.5389 161.592 69.6046C167.513 69.7903 173.445 69.6665 179.373 69.6743C182.54 69.6781 183.487 70.8696 182.694 73.8522C179.667 85.2953 172.42 92.9626 161.283 96.5681C148.804 100.607 136.232 100.305 124.063 95.2257C111.886 90.1425 104.387 80.6802 100.899 68.1694C96.6379 52.885 97.4964 37.8868 105.327 23.8131C111.855 12.0838 122.23 5.72015 135.401 3.91356C143.815 2.76075 152.13 3.34876 160.107 6.49772C173.371 11.7357 180.97 21.8982 184.806 35.26C186.933 42.6721 186.956 50.2737 186.817 57.883C186.79 59.4653 185.374 60.4982 183.433 60.4982C174.411 60.5059 165.393 60.4982 156.372 60.4982L156.368 60.5059ZM142.717 42.1112C147.099 42.1112 151.476 42.1228 155.857 42.1073C158.344 42.0996 159.423 40.7533 158.963 38.2929C157.644 31.3026 152.814 26.7958 145.428 25.6739C135.911 24.2271 128.123 29.4263 126.391 38.3819C125.946 40.6914 127.048 42.0957 129.388 42.1034C133.831 42.1228 138.274 42.1112 142.721 42.1073L142.717 42.1112Z"></path><path d="M371.929 99.1329C364.628 99.1793 357.571 97.9491 350.901 94.9046C340.672 90.2353 333.46 82.595 329.597 72.0804C324.323 57.736 324.307 43.2562 330.197 29.1014C336.063 15.0045 347.092 7.05476 361.922 4.31586C371.055 2.62919 380.151 3.07794 388.983 6.13405C401.887 10.5983 410.627 19.403 414.892 32.32C419.61 46.6063 419.358 60.9237 413.102 74.7188C406.69 88.8543 395.116 96.2818 380.019 98.6068C377.339 99.0207 374.64 99.1406 371.929 99.1367V99.1329ZM351.705 50.8385C351.705 56.2312 352.246 61.0088 354.168 65.5311C357.273 72.8425 362.834 76.6685 370.75 76.9973C379.018 77.3416 385.611 74.3938 389.126 66.5833C393.275 57.3685 393.21 47.7785 390.116 38.32C387.44 30.1497 381.114 25.7242 372.9 25.5269C363.581 25.3064 357.42 29.2097 353.971 37.5579C352.146 41.9796 351.74 46.645 351.709 50.8346L351.705 50.8385Z"></path><path d="M230.746 34.7308C231.754 35.2616 231.767 36.7063 230.77 37.2574C228.848 38.3202 227.049 39.3173 225.213 40.2388C223.577 41.0589 222.85 42.2194 222.854 44.0492C222.861 48.881 222.807 53.7166 222.691 58.5484C222.657 60.0261 223.206 60.9778 224.455 61.6819C226.137 62.6297 227.776 63.6548 229.439 64.6413C230.692 65.3866 230.683 66.1732 229.412 67.0011C227.034 68.5407 224.675 70.1113 222.262 71.593C220.897 72.4324 220.39 73.562 220.414 75.1288C220.514 81.2488 220.561 87.3726 220.607 93.4926C220.626 96.1232 219.4 97.334 216.779 97.3301C210.591 97.3224 204.408 97.3147 198.221 97.2915C195.939 97.2837 194.42 95.7595 194.4 93.4578C194.315 83.4035 194.265 73.3531 194.137 63.2989C194.122 62.15 194.497 61.5774 195.491 61.0823C201.651 58.0068 207.788 54.881 213.921 51.7553C214.752 51.3298 215.781 51.0628 215.8 49.8094C215.823 48.4555 214.741 48.1731 213.828 47.7437C207.606 44.792 201.396 41.8132 195.135 38.9389C194.01 38.4206 193.658 37.8171 193.665 36.6217C193.716 27.4069 193.696 18.1921 193.712 8.9735C193.712 6.58664 194.683 5.63112 197.107 5.62725C203.615 5.61951 210.124 5.61565 216.632 5.62725C218.793 5.62725 219.648 6.47059 219.652 8.66403C219.671 14.5944 219.698 20.521 219.636 26.4514C219.617 28.2154 220.259 29.3257 221.852 30.1187C224.781 31.5774 227.67 33.1102 230.746 34.7308Z"></path><path d="M248.095 64.4835L247.928 64.5847C247.028 65.1338 247.006 66.4417 247.888 67.0207C250.1 68.4735 252.176 69.8561 254.316 71.1283C256.11 72.196 256.887 73.5035 256.826 75.6738C256.652 81.6661 256.706 87.6623 256.686 93.6546C256.679 96.0763 257.924 97.3296 260.275 97.3296C266.59 97.3219 272.905 97.3103 279.219 97.2948C281.779 97.2871 282.986 96.1227 282.994 93.5733C283.028 83.5191 283.017 73.4648 283.102 63.4106C283.114 62.1031 282.661 61.5189 281.528 60.958C275.472 57.9638 269.467 54.8689 263.446 51.8051C262.545 51.3486 261.416 51.0391 261.423 49.7471C261.431 48.4472 262.568 48.1532 263.481 47.72C269.703 44.7683 275.929 41.8244 282.162 38.892C282.943 38.5245 283.574 38.2228 283.547 37.1125C283.311 27.5148 283.175 17.9131 282.916 8.31537C282.874 6.70995 282.05 5.61903 280.113 5.6345C273.736 5.68866 267.355 5.6345 260.975 5.6345C258.686 5.6345 257.614 6.72542 257.603 9.04266C257.576 14.8415 257.514 20.6443 257.576 26.4432C257.595 28.215 256.988 29.3291 255.391 30.1183L246.801 34.9405C245.824 35.4891 245.832 36.9028 246.813 37.4441L246.863 37.4714C248.633 38.4477 250.4 39.4223 252.201 40.3311C253.786 41.1319 254.405 42.3079 254.405 44.041C254.393 48.8109 254.416 53.5807 254.544 58.3467C254.59 60.0644 253.914 61.1011 252.464 61.9019C251.01 62.7057 249.594 63.5696 248.095 64.4835Z"></path><path d="M291.933 51.2834C291.933 37.1711 291.933 23.0626 291.933 8.95031C291.933 6.20367 292.861 5.2791 295.634 5.2791C301.883 5.27137 308.132 5.27137 314.381 5.2791C316.636 5.2791 317.757 6.42805 317.757 8.69886C317.757 37.113 317.757 65.5272 317.757 93.9452C317.757 96.1232 316.52 97.3611 314.339 97.3611C308.024 97.3611 301.713 97.365 295.398 97.3611C293.039 97.3611 291.937 96.2315 291.937 93.8137C291.937 79.6395 291.937 65.4614 291.937 51.2872L291.933 51.2834Z"></path><path d="M245.632 54.732C245.623 55.2408 245.344 55.7063 244.899 55.9533L239.013 59.2209C238.568 59.4679 238.025 59.4587 237.589 59.1969L231.817 55.7334C231.381 55.4717 231.118 54.9972 231.126 54.4887L231.238 47.7574C231.247 47.2486 231.526 46.783 231.971 46.536L237.857 43.2684C238.302 43.0215 238.845 43.0307 239.281 43.2925L245.052 46.756C245.488 47.0177 245.752 47.4921 245.743 48.0006L245.632 54.732Z"></path></mask><path d="M3.85352 51.368C3.85352 37.19 3.85352 23.0158 3.85352 8.83769C3.85352 6.2574 4.82799 5.28254 7.4421 5.2748C13.0454 5.25933 18.6526 5.32896 24.2559 5.22838C26.2938 5.19356 27.3379 6.24193 28.0301 7.88991C28.4516 8.89572 28.7185 9.96343 29.0665 11.0002C29.7509 13.0234 30.6519 13.2903 32.2413 11.8397C35.826 8.57077 39.8903 6.11814 44.5887 4.92664C56.0931 2.01365 67.1334 2.87246 77.0484 9.93635C84.6162 15.329 88.2473 23.1705 89.7245 32.1377C90.2157 35.128 90.4013 38.1493 90.4013 41.1823C90.4013 58.6447 90.4051 76.1071 90.4013 93.5695C90.4013 96.351 89.3881 97.3452 86.5691 97.3452C80.4476 97.3529 74.3261 97.3529 68.2084 97.3452C65.691 97.3452 64.5812 96.2581 64.5812 93.7707C64.5812 76.6294 64.5734 59.4919 64.585 42.3505C64.585 40.0836 64.3917 37.8437 63.8233 35.6542C62.3886 30.1261 58.9779 26.5786 53.2199 25.832C45.8455 24.8804 39.0086 25.9829 34.1052 32.3156C31.1237 36.1648 29.925 40.7683 29.8321 45.5227C29.6311 55.8284 29.6813 66.138 29.6465 76.4475C29.6272 82.2464 29.6465 88.0453 29.6388 93.8442C29.6349 96.2349 28.5096 97.3374 26.1121 97.3413C19.9287 97.3413 13.7415 97.3452 7.55813 97.3413C4.83961 97.3413 3.85352 96.3626 3.85352 93.6894C3.85352 79.5771 3.85352 65.4648 3.85352 51.3525V51.368Z" fill="#FC5C21"></path><path d="M156.368 60.5059C147.478 60.5059 138.583 60.5059 129.693 60.5059C126.793 60.5059 125.76 61.8328 126.46 64.6568C128.135 71.4344 134.341 76.4055 141.867 76.9316C145.625 77.1946 149.334 77.0205 152.857 75.4422C154.597 74.6646 156.066 73.5892 157.141 71.9721C158.181 70.4054 159.461 69.5389 161.592 69.6046C167.513 69.7903 173.445 69.6665 179.373 69.6743C182.54 69.6781 183.487 70.8696 182.694 73.8522C179.667 85.2953 172.42 92.9626 161.283 96.5681C148.804 100.607 136.232 100.305 124.063 95.2257C111.886 90.1425 104.387 80.6802 100.899 68.1694C96.6379 52.885 97.4964 37.8868 105.327 23.8131C111.855 12.0838 122.23 5.72015 135.401 3.91356C143.815 2.76075 152.13 3.34876 160.107 6.49772C173.371 11.7357 180.97 21.8982 184.806 35.26C186.933 42.6721 186.956 50.2737 186.817 57.883C186.79 59.4653 185.374 60.4982 183.433 60.4982C174.411 60.5059 165.393 60.4982 156.372 60.4982L156.368 60.5059ZM142.717 42.1112C147.099 42.1112 151.476 42.1228 155.857 42.1073C158.344 42.0996 159.423 40.7533 158.963 38.2929C157.644 31.3026 152.814 26.7958 145.428 25.6739C135.911 24.2271 128.123 29.4263 126.391 38.3819C125.946 40.6914 127.048 42.0957 129.388 42.1034C133.831 42.1228 138.274 42.1112 142.721 42.1073L142.717 42.1112Z" fill="#FC5C21"></path><path d="M371.929 99.1329C364.628 99.1793 357.571 97.9491 350.901 94.9046C340.672 90.2353 333.46 82.595 329.597 72.0804C324.323 57.736 324.307 43.2562 330.197 29.1014C336.063 15.0045 347.092 7.05476 361.922 4.31586C371.055 2.62919 380.151 3.07794 388.983 6.13405C401.887 10.5983 410.627 19.403 414.892 32.32C419.61 46.6063 419.358 60.9237 413.102 74.7188C406.69 88.8543 395.116 96.2818 380.019 98.6068C377.339 99.0207 374.64 99.1406 371.929 99.1367V99.1329ZM351.705 50.8385C351.705 56.2312 352.246 61.0088 354.168 65.5311C357.273 72.8425 362.834 76.6685 370.75 76.9973C379.018 77.3416 385.611 74.3938 389.126 66.5833C393.275 57.3685 393.21 47.7785 390.116 38.32C387.44 30.1497 381.114 25.7242 372.9 25.5269C363.581 25.3064 357.42 29.2097 353.971 37.5579C352.146 41.9796 351.74 46.645 351.709 50.8346L351.705 50.8385Z" fill="#FC5C21"></path><path d="M230.746 34.7308C231.754 35.2616 231.767 36.7063 230.77 37.2574C228.848 38.3202 227.049 39.3173 225.213 40.2388C223.577 41.0589 222.85 42.2194 222.854 44.0492C222.861 48.881 222.807 53.7166 222.691 58.5484C222.657 60.0261 223.206 60.9778 224.455 61.6819C226.137 62.6297 227.776 63.6548 229.439 64.6413C230.692 65.3866 230.683 66.1732 229.412 67.0011C227.034 68.5407 224.675 70.1113 222.262 71.593C220.897 72.4324 220.39 73.562 220.414 75.1288C220.514 81.2488 220.561 87.3726 220.607 93.4926C220.626 96.1232 219.4 97.334 216.779 97.3301C210.591 97.3224 204.408 97.3147 198.221 97.2915C195.939 97.2837 194.42 95.7595 194.4 93.4578C194.315 83.4035 194.265 73.3531 194.137 63.2989C194.122 62.15 194.497 61.5774 195.491 61.0823C201.651 58.0068 207.788 54.881 213.921 51.7553C214.752 51.3298 215.781 51.0628 215.8 49.8094C215.823 48.4555 214.741 48.1731 213.828 47.7437C207.606 44.792 201.396 41.8132 195.135 38.9389C194.01 38.4206 193.658 37.8171 193.665 36.6217C193.716 27.4069 193.696 18.1921 193.712 8.9735C193.712 6.58664 194.683 5.63112 197.107 5.62725C203.615 5.61951 210.124 5.61565 216.632 5.62725C218.793 5.62725 219.648 6.47059 219.652 8.66403C219.671 14.5944 219.698 20.521 219.636 26.4514C219.617 28.2154 220.259 29.3257 221.852 30.1187C224.781 31.5774 227.67 33.1102 230.746 34.7308Z" fill="#FC5C21"></path><path d="M248.095 64.4835L247.928 64.5847C247.028 65.1338 247.006 66.4417 247.888 67.0207C250.1 68.4735 252.176 69.8561 254.316 71.1283C256.11 72.196 256.887 73.5035 256.826 75.6738C256.652 81.6661 256.706 87.6623 256.686 93.6546C256.679 96.0763 257.924 97.3296 260.275 97.3296C266.59 97.3219 272.905 97.3103 279.219 97.2948C281.779 97.2871 282.986 96.1227 282.994 93.5733C283.028 83.5191 283.017 73.4648 283.102 63.4106C283.114 62.1031 282.661 61.5189 281.528 60.958C275.472 57.9638 269.467 54.8689 263.446 51.8051C262.545 51.3486 261.416 51.0391 261.423 49.7471C261.431 48.4472 262.568 48.1532 263.481 47.72C269.703 44.7683 275.929 41.8244 282.162 38.892C282.943 38.5245 283.574 38.2228 283.547 37.1125C283.311 27.5148 283.175 17.9131 282.916 8.31537C282.874 6.70995 282.05 5.61903 280.113 5.6345C273.736 5.68866 267.355 5.6345 260.975 5.6345C258.686 5.6345 257.614 6.72542 257.603 9.04266C257.576 14.8415 257.514 20.6443 257.576 26.4432C257.595 28.215 256.988 29.3291 255.391 30.1183L246.801 34.9405C245.824 35.4891 245.832 36.9028 246.813 37.4441L246.863 37.4714C248.633 38.4477 250.4 39.4223 252.201 40.3311C253.786 41.1319 254.405 42.3079 254.405 44.041C254.393 48.8109 254.416 53.5807 254.544 58.3467C254.59 60.0644 253.914 61.1011 252.464 61.9019C251.01 62.7057 249.594 63.5696 248.095 64.4835Z" fill="#FC5C21"></path><path d="M291.933 51.2834C291.933 37.1711 291.933 23.0626 291.933 8.95031C291.933 6.20367 292.861 5.2791 295.634 5.2791C301.883 5.27137 308.132 5.27137 314.381 5.2791C316.636 5.2791 317.757 6.42805 317.757 8.69886C317.757 37.113 317.757 65.5272 317.757 93.9452C317.757 96.1232 316.52 97.3611 314.339 97.3611C308.024 97.3611 301.713 97.365 295.398 97.3611C293.039 97.3611 291.937 96.2315 291.937 93.8137C291.937 79.6395 291.937 65.4614 291.937 51.2872L291.933 51.2834Z" fill="#FC5C21"></path><path d="M245.632 54.732C245.623 55.2408 245.344 55.7063 244.899 55.9533L239.013 59.2209C238.568 59.4679 238.025 59.4587 237.589 59.1969L231.817 55.7334C231.381 55.4717 231.118 54.9972 231.126 54.4887L231.238 47.7574C231.247 47.2486 231.526 46.783 231.971 46.536L237.857 43.2684C238.302 43.0215 238.845 43.0307 239.281 43.2925L245.052 46.756C245.488 47.0177 245.752 47.4921 245.743 48.0006L245.632 54.732Z" fill="#FC5C21"></path><path d="M3.85352 51.368C3.85352 37.19 3.85352 23.0158 3.85352 8.83769C3.85352 6.2574 4.82799 5.28254 7.4421 5.2748C13.0454 5.25933 18.6526 5.32896 24.2559 5.22838C26.2938 5.19356 27.3379 6.24193 28.0301 7.88991C28.4516 8.89572 28.7185 9.96343 29.0665 11.0002C29.7509 13.0234 30.6519 13.2903 32.2413 11.8397C35.826 8.57077 39.8903 6.11814 44.5887 4.92664C56.0931 2.01365 67.1334 2.87246 77.0484 9.93635C84.6162 15.329 88.2473 23.1705 89.7245 32.1377C90.2157 35.128 90.4013 38.1493 90.4013 41.1823C90.4013 58.6447 90.4051 76.1071 90.4013 93.5695C90.4013 96.351 89.3881 97.3452 86.5691 97.3452C80.4476 97.3529 74.3261 97.3529 68.2084 97.3452C65.691 97.3452 64.5812 96.2581 64.5812 93.7707C64.5812 76.6294 64.5734 59.4919 64.585 42.3505C64.585 40.0836 64.3917 37.8437 63.8233 35.6542C62.3886 30.1261 58.9779 26.5786 53.2199 25.832C45.8455 24.8804 39.0086 25.9829 34.1052 32.3156C31.1237 36.1648 29.925 40.7683 29.8321 45.5227C29.6311 55.8284 29.6813 66.138 29.6465 76.4475C29.6272 82.2464 29.6465 88.0453 29.6388 93.8442C29.6349 96.2349 28.5096 97.3374 26.1121 97.3413C19.9287 97.3413 13.7415 97.3452 7.55813 97.3413C4.83961 97.3413 3.85352 96.3626 3.85352 93.6894C3.85352 79.5771 3.85352 65.4648 3.85352 51.3525V51.368Z" stroke="#073252" stroke-width="6" mask="url(#path-1-outside-1_645_7441)"></path><path d="M156.368 60.5059C147.478 60.5059 138.583 60.5059 129.693 60.5059C126.793 60.5059 125.76 61.8328 126.46 64.6568C128.135 71.4344 134.341 76.4055 141.867 76.9316C145.625 77.1946 149.334 77.0205 152.857 75.4422C154.597 74.6646 156.066 73.5892 157.141 71.9721C158.181 70.4054 159.461 69.5389 161.592 69.6046C167.513 69.7903 173.445 69.6665 179.373 69.6743C182.54 69.6781 183.487 70.8696 182.694 73.8522C179.667 85.2953 172.42 92.9626 161.283 96.5681C148.804 100.607 136.232 100.305 124.063 95.2257C111.886 90.1425 104.387 80.6802 100.899 68.1694C96.6379 52.885 97.4964 37.8868 105.327 23.8131C111.855 12.0838 122.23 5.72015 135.401 3.91356C143.815 2.76075 152.13 3.34876 160.107 6.49772C173.371 11.7357 180.97 21.8982 184.806 35.26C186.933 42.6721 186.956 50.2737 186.817 57.883C186.79 59.4653 185.374 60.4982 183.433 60.4982C174.411 60.5059 165.393 60.4982 156.372 60.4982L156.368 60.5059ZM142.717 42.1112C147.099 42.1112 151.476 42.1228 155.857 42.1073C158.344 42.0996 159.423 40.7533 158.963 38.2929C157.644 31.3026 152.814 26.7958 145.428 25.6739C135.911 24.2271 128.123 29.4263 126.391 38.3819C125.946 40.6914 127.048 42.0957 129.388 42.1034C133.831 42.1228 138.274 42.1112 142.721 42.1073L142.717 42.1112Z" stroke="#073252" stroke-width="6" mask="url(#path-1-outside-1_645_7441)"></path><path d="M371.929 99.1329C364.628 99.1793 357.571 97.9491 350.901 94.9046C340.672 90.2353 333.46 82.595 329.597 72.0804C324.323 57.736 324.307 43.2562 330.197 29.1014C336.063 15.0045 347.092 7.05476 361.922 4.31586C371.055 2.62919 380.151 3.07794 388.983 6.13405C401.887 10.5983 410.627 19.403 414.892 32.32C419.61 46.6063 419.358 60.9237 413.102 74.7188C406.69 88.8543 395.116 96.2818 380.019 98.6068C377.339 99.0207 374.64 99.1406 371.929 99.1367V99.1329ZM351.705 50.8385C351.705 56.2312 352.246 61.0088 354.168 65.5311C357.273 72.8425 362.834 76.6685 370.75 76.9973C379.018 77.3416 385.611 74.3938 389.126 66.5833C393.275 57.3685 393.21 47.7785 390.116 38.32C387.44 30.1497 381.114 25.7242 372.9 25.5269C363.581 25.3064 357.42 29.2097 353.971 37.5579C352.146 41.9796 351.74 46.645 351.709 50.8346L351.705 50.8385Z" stroke="#073252" stroke-width="6" mask="url(#path-1-outside-1_645_7441)"></path><path d="M230.746 34.7308C231.754 35.2616 231.767 36.7063 230.77 37.2574C228.848 38.3202 227.049 39.3173 225.213 40.2388C223.577 41.0589 222.85 42.2194 222.854 44.0492C222.861 48.881 222.807 53.7166 222.691 58.5484C222.657 60.0261 223.206 60.9778 224.455 61.6819C226.137 62.6297 227.776 63.6548 229.439 64.6413C230.692 65.3866 230.683 66.1732 229.412 67.0011C227.034 68.5407 224.675 70.1113 222.262 71.593C220.897 72.4324 220.39 73.562 220.414 75.1288C220.514 81.2488 220.561 87.3726 220.607 93.4926C220.626 96.1232 219.4 97.334 216.779 97.3301C210.591 97.3224 204.408 97.3147 198.221 97.2915C195.939 97.2837 194.42 95.7595 194.4 93.4578C194.315 83.4035 194.265 73.3531 194.137 63.2989C194.122 62.15 194.497 61.5774 195.491 61.0823C201.651 58.0068 207.788 54.881 213.921 51.7553C214.752 51.3298 215.781 51.0628 215.8 49.8094C215.823 48.4555 214.741 48.1731 213.828 47.7437C207.606 44.792 201.396 41.8132 195.135 38.9389C194.01 38.4206 193.658 37.8171 193.665 36.6217C193.716 27.4069 193.696 18.1921 193.712 8.9735C193.712 6.58664 194.683 5.63112 197.107 5.62725C203.615 5.61951 210.124 5.61565 216.632 5.62725C218.793 5.62725 219.648 6.47059 219.652 8.66403C219.671 14.5944 219.698 20.521 219.636 26.4514C219.617 28.2154 220.259 29.3257 221.852 30.1187C224.781 31.5774 227.67 33.1102 230.746 34.7308Z" stroke="#073252" stroke-width="6" mask="url(#path-1-outside-1_645_7441)"></path><path d="M248.095 64.4835L247.928 64.5847C247.028 65.1338 247.006 66.4417 247.888 67.0207C250.1 68.4735 252.176 69.8561 254.316 71.1283C256.11 72.196 256.887 73.5035 256.826 75.6738C256.652 81.6661 256.706 87.6623 256.686 93.6546C256.679 96.0763 257.924 97.3296 260.275 97.3296C266.59 97.3219 272.905 97.3103 279.219 97.2948C281.779 97.2871 282.986 96.1227 282.994 93.5733C283.028 83.5191 283.017 73.4648 283.102 63.4106C283.114 62.1031 282.661 61.5189 281.528 60.958C275.472 57.9638 269.467 54.8689 263.446 51.8051C262.545 51.3486 261.416 51.0391 261.423 49.7471C261.431 48.4472 262.568 48.1532 263.481 47.72C269.703 44.7683 275.929 41.8244 282.162 38.892C282.943 38.5245 283.574 38.2228 283.547 37.1125C283.311 27.5148 283.175 17.9131 282.916 8.31537C282.874 6.70995 282.05 5.61903 280.113 5.6345C273.736 5.68866 267.355 5.6345 260.975 5.6345C258.686 5.6345 257.614 6.72542 257.603 9.04266C257.576 14.8415 257.514 20.6443 257.576 26.4432C257.595 28.215 256.988 29.3291 255.391 30.1183L246.801 34.9405C245.824 35.4891 245.832 36.9028 246.813 37.4441L246.863 37.4714C248.633 38.4477 250.4 39.4223 252.201 40.3311C253.786 41.1319 254.405 42.3079 254.405 44.041C254.393 48.8109 254.416 53.5807 254.544 58.3467C254.59 60.0644 253.914 61.1011 252.464 61.9019C251.01 62.7057 249.594 63.5696 248.095 64.4835Z" stroke="#073252" stroke-width="6" mask="url(#path-1-outside-1_645_7441)"></path><path d="M291.933 51.2834C291.933 37.1711 291.933 23.0626 291.933 8.95031C291.933 6.20367 292.861 5.2791 295.634 5.2791C301.883 5.27137 308.132 5.27137 314.381 5.2791C316.636 5.2791 317.757 6.42805 317.757 8.69886C317.757 37.113 317.757 65.5272 317.757 93.9452C317.757 96.1232 316.52 97.3611 314.339 97.3611C308.024 97.3611 301.713 97.365 295.398 97.3611C293.039 97.3611 291.937 96.2315 291.937 93.8137C291.937 79.6395 291.937 65.4614 291.937 51.2872L291.933 51.2834Z" stroke="#073252" stroke-width="6" mask="url(#path-1-outside-1_645_7441)"></path><path d="M245.632 54.732C245.623 55.2408 245.344 55.7063 244.899 55.9533L239.013 59.2209C238.568 59.4679 238.025 59.4587 237.589 59.1969L231.817 55.7334C231.381 55.4717 231.118 54.9972 231.126 54.4887L231.238 47.7574C231.247 47.2486 231.526 46.783 231.971 46.536L237.857 43.2684C238.302 43.0215 238.845 43.0307 239.281 43.2925L245.052 46.756C245.488 47.0177 245.752 47.4921 245.743 48.0006L245.632 54.732Z" stroke="#073252" stroke-width="6" mask="url(#path-1-outside-1_645_7441)"></path></svg>